<svg width="312" height="248" viewBox="0 0 312 248" fill="none" xmlns="http://www.w3.org/2000/svg">
<path d="M304.879 44.1395C299.865 40.4028 294.483 37.5245 288.392 35.8854C287.764 35.6926 287.179 35.4622 286.551 35.2694C285.376 34.888 284.252 34.3098 283.101 34.209C282.984 34.1629 282.862 34.1963 282.745 34.1502C280.208 33.8564 277.908 32.8968 275.52 32.0921C273.76 31.4802 272.032 30.9898 270.137 31.3285C269.814 31.3912 269.43 31.1315 269.074 31.0728C268.157 31.0641 267.333 30.821 266.514 30.4983C266.397 30.4522 266.317 30.448 266.242 30.3643C265.001 29.74 263.821 29.4381 262.338 29.5592C260.976 29.6467 259.334 29.7593 258.026 28.8921C256.632 28.8583 255.284 28.7071 253.963 28.0786C253.34 27.8063 252.582 27.806 251.866 27.7682C251.627 27.7555 251.426 27.7848 251.229 27.7345C249.718 27.6545 248.239 27.696 246.774 27.4987C243.722 27.1378 240.67 26.7768 237.586 26.2944C236.991 26.223 236.419 25.7538 235.838 25.4438C234.199 26.9132 232.264 25.8532 230.5 25.9993C230.429 25.8359 230.401 25.6349 230.288 25.5092C230.021 25.2956 229.75 25.1615 229.478 25.0275L229.31 25.1782C229.535 25.4295 229.802 25.6431 229.99 25.8526C227.355 25.8728 224.758 25.9349 222.123 25.9551C221.843 25.9801 221.562 26.0051 221.281 26.0302C219.222 25.7616 217.199 25.5349 215.165 26.2253C211.622 26.0778 208.142 26.931 204.557 26.8212C203.64 26.8126 202.723 26.8039 201.854 27.3564C201.358 27.6494 200.558 27.6869 199.968 27.536C198.985 27.2845 198.176 27.4811 197.278 27.8326C196.623 28.1171 195.814 28.3137 195.098 28.2758C193.469 28.1497 191.963 28.6686 190.495 29.2293C189.882 29.4762 189.237 29.6017 188.591 29.7271C187.384 29.9027 186.177 30.0782 184.933 30.2118C184.815 30.1658 184.619 30.1154 184.469 29.9479C182.125 27.6692 182.829 26.5095 184.333 24.6338C185.192 23.5621 186.36 22.6663 187.486 21.8081C189.112 20.5774 190.884 19.5938 192.552 18.3255C193.094 17.9152 194.049 17.9657 194.629 17.5974C195.788 16.8607 197.262 16.8988 198.393 15.9611C199.355 15.1741 200.801 15.0112 202.022 14.597C202.709 14.4338 203.397 14.2707 204.047 14.0657C204.191 13.6344 204.289 13.3204 204.475 12.8514C205.061 13.0819 205.6 13.4296 206.199 13.4214C206.915 13.4593 207.649 13.1789 208.374 13.0577C209.019 12.9323 209.628 12.7649 210.236 12.5976C211.297 12.1749 212.081 11.0194 213.425 11.2501C213.504 11.2543 213.756 11.0282 213.803 10.911C213.97 10.0819 214.616 9.95644 215.332 9.99433C216.965 10.0409 218.615 9.09073 220.255 10.4145C220.221 9.61463 220.239 9.29638 220.187 8.8148C222.251 9.00381 224.281 8.39298 226.146 9.96802C226.523 8.95055 226.756 8.36436 226.952 7.73628C228.112 7.67798 229.118 7.53169 230.289 7.99265C231.815 8.51234 233.45 9.23722 235.142 8.24943C235.39 8.10294 236.026 8.13662 236.214 8.34605C237.081 9.22987 238.218 8.89097 239.285 9.06715C240.549 9.29363 241.863 8.64493 243.015 9.42414C243.17 9.51212 243.577 9.37404 243.787 9.18566C244.292 8.73355 244.886 8.8049 245.345 9.14841C246.039 9.58411 246.62 9.89415 247.409 9.33743C247.615 9.22861 248.037 9.53023 248.393 9.58896C248.903 9.73566 249.521 10.0876 249.966 9.99138C251.622 9.64009 253.102 10.277 254.646 10.4784C254.923 10.533 255.194 10.667 255.475 10.642C259.518 10.417 263.484 11.5445 267.489 11.2777C267.929 11.261 268.406 11.2863 268.879 11.3911C271.131 11.7895 273.42 12.2299 275.671 12.6283C278.475 13.1358 281.317 13.6852 284.075 14.3099C286.912 14.9388 289.651 15.8818 292.39 16.8247C296.225 18.1449 300.027 19.3436 303.634 21.1704C305.302 22.0167 306.927 22.9007 308.156 24.4421C308.789 25.2337 309.544 25.9919 310.84 25.6615C310.947 25.1883 311.053 24.7151 311.118 24.2796C311.423 22.4204 311.49 20.5486 311.557 18.6768C311.589 18.1198 311.541 17.5587 311.371 17.031C311.136 16.2604 310.657 15.5568 309.851 14.9954C309.659 14.8656 309.43 14.6938 309.196 14.6016C305.05 12.4271 300.937 10.3741 296.512 8.90299C295.651 8.61799 294.827 8.3749 294.003 8.13179C291.568 7.44435 289.175 6.71923 286.699 6.06946C285.285 5.67546 283.773 5.59547 282.321 5.15956C280.907 4.76553 279.409 4.44684 277.944 4.24963C277.35 4.17828 276.797 4.06925 276.24 4.03978C274.026 3.68321 271.817 3.24711 269.603 2.89055C266.438 2.4039 263.311 1.95915 260.138 1.63165C256.487 1.27887 252.832 1.00566 249.209 0.853909C247.061 0.740243 244.9 0.865266 242.742 0.910725C240.866 0.931138 238.952 0.909684 237.108 1.05154C234.586 1.19742 232.017 1.46052 229.528 1.72783C228.887 1.77371 228.27 2.10017 227.658 2.34706C226.55 2.88697 225.38 3.10437 224.149 2.99934C221.852 3.39652 219.551 3.87328 217.254 4.27047C216.931 4.33319 216.458 4.22835 216.191 4.01471C214.897 2.90883 213.743 3.56598 212.588 4.2231C212.298 4.40727 211.966 4.62912 211.672 4.89286C210.836 5.56682 209.891 6.03556 208.795 5.65837C208.248 5.4698 207.949 5.81308 207.5 5.98883C207.252 6.13532 206.733 6.14776 206.461 6.01368C205.955 5.78741 205.467 5.24287 204.925 5.6531C204.509 5.9503 204.356 6.54073 204.048 7.04317C202.657 6.25133 201.244 6.53567 200.305 7.60325C199.54 8.44055 198.735 8.55758 197.822 8.46938C196.554 8.32247 195.398 8.30122 194.53 9.53212C194.049 10.2648 193.183 10.0594 192.462 10.101C191.222 10.1551 190.02 10.2511 189.269 11.5281C189.049 11.8756 188.521 12.0472 188.109 12.2648C186.501 13.1773 184.664 13.9179 183.281 15.0817C180.519 17.3297 177.828 19.741 177.367 23.6269C177.266 24.6989 176.969 25.7206 177.261 26.8932C177.879 29.3598 176.665 31.0513 174.215 32.0388C172.578 32.7503 171.012 33.625 169.272 34.0517C169.029 34.1186 168.688 34.4996 168.721 34.6211C169.088 35.8774 167.74 35.7263 167.386 36.346C166.938 37.2001 166.147 37.0784 165.459 37.2416C164.73 37.4424 164 37.6432 163.27 37.844C162.906 37.9444 162.503 38.0029 162.213 38.1871C160.76 39.1875 159.339 40.3093 157.923 41.3517C157.55 41.6112 157.2 42.1513 156.839 42.1721C155.716 42.2723 155.311 43.0888 154.826 43.901C154.382 44.6756 153.798 45.1235 152.792 45.2698C151.623 45.4872 150.852 46.4041 150.433 47.4592C149.87 48.9457 148.997 50.2561 148.237 51.6923C147.351 53.2414 146.647 55.0796 146.857 57.0059C147.096 59.8117 147.335 62.6174 147.617 65.3855C147.085 66.3149 146.224 66.7083 145.364 67.1017C138.608 70.1358 132.442 73.9993 126.488 78.3527C123.325 80.6591 121.15 83.816 118.933 87.0105C117.145 89.6691 117.02 92.5752 116.852 95.519C116.763 95.6739 116.721 95.7116 116.675 95.8289C115.256 97.6291 113.358 98.7257 111.418 99.86C108.945 101.245 106.584 102.756 104.444 104.598C103.94 105.051 103.365 105.339 102.785 105.708C101.832 106.336 100.541 106.586 100.375 108.094C100.319 108.37 99.9408 108.709 99.6135 108.852C98.3884 109.345 97.8941 110.317 97.8682 111.473C97.8138 112.427 97.3797 113.043 96.707 113.646C94.3012 115.952 93.455 118.9 93.4749 122.053C93.4547 123.808 92.5866 125.039 91.6764 126.307C89.9137 127.132 88.301 128.124 86.4814 128.546C83.9322 129.17 82.0025 130.823 79.7489 131.861C77.4907 132.978 75.4064 134.544 73.3688 135.992C71.2891 137.478 69.3265 139.011 67.3218 140.58C66.8218 140.953 66.4297 141.531 66.0047 141.987C65.2763 142.866 64.6275 143.75 63.9366 144.671C63.7219 144.939 63.3855 145.24 63.3253 145.596C62.8096 147.643 61.5825 149.574 61.6147 151.81C61.6069 152.647 61.2808 153.468 61.1139 154.297C59.8047 154.866 59.672 156.495 58.2741 157.219C55.4408 158.625 52.5985 160.191 50.0517 162.171C49.2574 162.807 48.4255 163.401 47.6266 164.117C46.1549 165.436 44.6833 166.755 43.2492 168.115C42.8287 168.492 42.4832 168.953 42.2174 169.417C39.3017 174.37 37.7671 179.596 38.7979 185.317C39.0721 186.807 39.2247 188.332 38.2543 189.956C37.0337 190.37 35.5278 190.889 34.0219 191.408C33.573 191.584 32.8899 191.667 32.7922 191.981C32.3083 193.472 31.283 193.258 30.1226 193.317C28.4802 193.429 26.7629 193.458 25.5959 195.032C25.339 195.338 24.8106 195.509 24.4037 195.647C21.8874 196.392 19.5121 197.464 17.3438 199.104C15.7176 200.335 13.7912 201.231 12.1979 202.583C8.96937 205.325 6.00793 208.28 4.4197 212.346C4.18681 212.932 3.75727 213.468 3.44481 214.05C0.656603 219.569 0.246192 225.373 1.50205 231.344C1.62945 231.91 1.84094 232.4 1.88878 232.961C2.49908 239.058 6.21759 243.125 10.7214 246.715C11.4478 247.272 12.2389 247.394 13.0662 246.879C13.9822 246.209 14.8561 245.577 15.8141 244.87C15.6764 243.785 15.375 242.772 15.4294 241.817C15.4463 240.82 16.568 240.042 16.1211 238.781C13.3112 237.675 10.8649 235.79 8.54934 233.712C6.08367 231.467 5.316 228.833 6.05876 225.6C6.588 223.314 7.23432 221.074 8.42852 219.022C9.58066 217.008 10.9954 215.288 12.6773 213.781C14.8262 211.78 17.1207 210.026 19.4288 208.033C19.3628 207.79 19.3059 207.388 19.216 206.865C25.7313 202.461 33.0551 199.976 40.5722 198.299C41.0644 198.763 41.4066 199.061 41.7817 199.48C42.1045 199.417 42.5068 199.359 42.8296 199.296C43.7604 199.066 44.5095 199.225 45.0631 200.012C45.4713 200.553 45.9305 200.896 46.5955 201.131C47.6912 201.508 48.787 201.885 49.7759 202.736C50.5728 203.456 52.0334 203.733 53.1893 203.754C54.668 203.713 55.9649 204.061 57.2016 204.765C57.9371 205.163 58.6816 205.401 59.6079 205.251C60.4126 205.134 61.3208 205.302 62.1073 205.503C62.8939 205.704 63.5258 205.817 64.1611 205.173C64.3713 204.984 64.8532 204.93 65.2135 204.909C68.9529 205.107 72.6956 204.547 76.3917 204.104C76.8736 204.05 77.3135 204.033 77.7909 204.058C80.3608 204.474 82.8078 204.244 85.1171 202.93C85.8183 202.528 86.198 202.867 86.3222 204.191C87.3008 204.522 88.2692 204.333 89.2181 203.785C89.7557 203.455 90.3353 203.086 90.9103 202.797C90.7228 202.588 90.5727 202.42 90.3431 202.249C90.5953 202.023 90.8101 201.755 91.0954 201.65C91.4182 201.587 91.7739 201.646 92.1342 201.625C93.1879 202.04 93.9402 201.441 94.655 200.801C95.3278 200.198 95.2095 199.474 95.1332 198.711C95.0284 197.748 94.9192 196.865 94.8144 195.902C94.5105 193.531 93.552 191.446 92.0605 189.611C91.6148 189.029 90.9169 188.673 90.2565 188.358C87.6899 187.185 84.9324 186.561 82.1147 186.292C79.6949 186.044 77.266 185.955 74.837 185.867C74.121 185.829 73.3913 186.03 72.6707 186.071C72.1093 186.121 71.5433 186.251 70.9909 186.142C69.6849 185.953 68.4074 185.965 67.1162 186.216C66.6719 186.313 66.1479 186.405 65.7171 186.262C63.9985 185.612 62.5676 186.215 61.3573 187.149C58.2395 186.545 55.2685 186.866 52.3965 187.552C50.8997 187.912 49.421 187.953 47.9843 187.957C46.5477 187.961 45.4972 186.788 44.6435 185.666C44.0523 184.836 44.2283 183.848 44.5589 182.948C45.3598 180.796 46.3528 178.773 47.9597 177.183C49.3938 175.822 50.903 174.545 52.4587 173.151C52.2097 172.619 52.0357 172.171 51.7867 171.639C52.2027 171.342 52.7958 170.735 53.0675 170.869C54.6975 171.674 55.6168 170.246 56.8749 169.874C57.0386 169.802 57.2624 169.375 57.234 169.174C57.1816 168.693 57.0121 168.165 57.5031 167.952C57.9145 167.734 58.3919 167.759 58.8363 167.663C59.6455 167.467 60.4502 167.35 61.3015 167.115C62.438 166.776 63.4723 166.831 64.4147 167.799C64.3998 167.359 64.3759 167.078 64.3747 166.4C65.3637 167.25 66.2071 167.854 66.8028 168.603C67.0984 169.018 66.8564 169.763 66.8486 170.601C68.1468 171.627 69.6882 172.587 71.3932 173.475C72.8641 174.271 74.2884 175.184 75.7128 176.097C77.4042 177.224 79.2638 178.201 81.412 178.314C82.5259 178.373 83.5841 178.708 84.6844 179.006C87.1986 179.698 89.6198 180.624 92.2828 180.805C93.158 180.851 94.0435 181.417 94.8255 181.697C95.6347 181.501 96.453 181.145 97.2486 181.187C99.8787 181.246 102.5 181.465 105.125 181.604C106.913 181.738 108.706 181.793 110.248 180.638C110.5 180.412 110.94 180.395 111.342 180.337C113.19 180.115 115.034 179.973 116.919 179.794C117.762 179.719 118.245 180.343 118.859 180.774C119.36 181.08 119.959 181.072 120.238 180.369C120.327 180.214 120.341 179.975 120.429 179.82C120.518 179.665 120.766 179.519 120.883 179.565C122.334 180.001 123.037 178.162 124.502 178.36C126.562 178.628 128.296 177.603 129.97 176.933C130.469 175.882 129.216 176.175 129.354 175.145C130.087 174.186 130.697 172.583 132.788 172.294C132.917 173.538 131.537 173.944 131.361 174.932C131.816 175.355 132.236 174.978 132.568 174.756C133.064 174.463 133.484 174.087 133.788 173.664C135.626 170.808 136.439 167.739 135.834 164.355C135.687 163.43 135.578 162.546 135.59 161.629C135.564 159.992 135.06 158.329 134.875 156.684C134.641 154.477 133.567 153.023 131.362 152.508C131.165 152.457 131.053 152.332 130.902 152.164C130.827 152.08 130.832 152.001 130.757 151.917C130.915 151.247 131.458 151.515 131.856 151.536C133.049 151.599 134.276 151.784 135.511 151.809C135.951 151.793 136.4 151.617 136.844 151.521C136.764 150.838 137.016 150.612 137.685 150.767C138.583 150.416 139.458 150.462 140.32 150.747C139.451 151.3 138.542 151.132 137.681 150.847C137.387 151.111 137.134 151.337 136.84 151.6C137.295 152.023 137.67 152.442 138.437 152.283C139.485 152.099 140.528 151.995 141.576 151.811C141.276 151.476 140.976 151.141 140.676 150.806C141.27 150.877 141.823 150.986 142.417 151.058C142.165 151.284 141.908 151.589 141.656 151.815C142.152 152.201 142.676 152.109 143.167 151.895C142.942 151.644 142.68 151.351 142.497 151.062C142.927 151.204 143.237 151.38 143.209 151.858C143.706 152.243 144.263 152.272 144.801 151.942C146.869 152.051 148.778 151.474 150.732 150.779C151.424 150.537 152.159 150.256 152.875 150.294C155.346 150.345 157.709 150.191 160 149.195C161.552 148.559 163.279 148.371 164.902 147.898C165.996 147.597 167.016 147.212 167.524 146.002C167.798 145.378 168.406 145.211 169.169 145.131C172.706 144.68 174.35 143.131 175.023 139.735C175.519 137.327 175.538 134.894 175.398 132.453C175.383 132.013 175.129 131.561 175.035 131.117C174.907 130.552 174.583 129.936 174.728 129.505C175.165 128.131 174.554 126.942 174.388 125.656C174.152 124.207 173.284 123.323 172.127 122.624C170.97 121.924 169.645 121.375 168.403 120.751C169.989 120.236 169.989 120.236 171.29 120.505C172.671 120.777 174.01 121.087 175.391 121.36C176.14 121.519 176.814 121.595 177.416 120.829C177.673 120.523 178.436 120.444 178.955 120.431C179.873 120.44 180.823 120.57 181.778 120.621C183.926 120.734 186.078 120.768 188.216 120.363C188.983 120.204 189.887 120.451 190.683 120.493C191.637 120.544 192.607 121.034 193.57 120.247C193.864 119.983 194.458 120.055 194.936 120.08C197.767 120.11 200.574 119.86 203.32 119.287C205.58 118.848 207.749 117.885 210.178 117.974C210.974 118.016 211.797 117.58 212.577 117.183C213.606 116.639 214.55 116.17 215.748 116.154C216.029 116.128 216.389 116.108 216.558 115.957C217.954 114.555 219.952 114.501 221.631 113.752C223.595 112.898 225.494 112.48 227.624 112.911C228.49 113.117 229.454 113.008 230.301 112.854C230.661 112.833 231.048 112.335 231.23 111.945C231.547 111.284 232.062 111.351 232.591 111.179C232.997 111.041 233.418 110.664 233.558 110.313C233.791 109.726 233.869 109.052 233.985 108.42C234.344 105.606 234.583 102.826 234.343 100.02C234.329 99.5801 234.356 99.1027 234.392 98.4662C235.754 98.3787 236.937 97.9226 237.941 97.0979C238.652 96.537 239.456 96.4199 240.336 96.3867C242.011 96.3955 243.654 96.2829 245.314 95.852C246.409 95.5508 247.706 95.8988 248.782 95.9158C250.25 95.3551 251.602 94.7483 252.663 94.3256C253.613 94.4557 252.843 95.3726 253.685 95.2974C254.289 95.2096 254.972 95.1261 255.008 94.4896C255.02 93.5725 255.066 92.7769 255.851 92.2997C257.127 91.6091 258.45 90.8013 260.028 91.1242C260.224 91.1745 260.388 91.1033 260.706 91.1202C261.794 89.5418 262.609 87.8293 262.765 85.8025C263.053 82.1469 263.299 78.5289 263.147 74.8898C263.102 73.5707 261.777 70.2287 260.834 69.2611C259.929 68.3354 258.945 67.4055 257.956 66.5551C257.689 66.3415 257.337 66.2032 256.944 66.1026C256.434 65.9559 255.755 65.9599 255.334 65.6583C254.415 64.9712 253.543 64.167 252.709 63.4046C253.063 62.785 253.541 62.8102 253.967 63.0323C255.831 63.9289 258.049 63.5275 259.908 64.5037C260.255 64.7216 260.896 64.6757 261.303 64.5376C262.238 64.228 263.056 63.8723 263.844 64.7519C263.994 64.9195 264.598 64.8317 264.921 64.769C265.407 64.6351 265.949 64.2249 266.426 64.2501C267.302 64.2964 268.135 64.3804 269.01 64.4267C269.764 64.5065 270.438 64.5821 271.149 64.6995C271.584 64.7624 271.918 65.219 272.377 65.5625C273.134 64.8843 273.994 64.4909 275.136 64.7509C276.044 64.9186 277.008 64.81 277.925 64.8187C278.403 64.8439 278.894 64.6305 279.325 64.773C281.647 65.3347 283.99 64.8203 286.269 64.7414C287.668 64.6957 289.044 64.3695 290.41 64.2023C290.892 64.148 291.383 63.9346 291.776 64.0352C293.035 64.3413 294.214 63.9647 295.35 63.6258C298.592 62.7599 301.875 61.8563 304.59 59.7256C305.716 58.8674 306.449 57.9087 306.568 56.5184C306.706 54.81 306.964 53.068 307.06 51.3972C307.1 50.6812 307.104 49.9232 307.065 49.2029C307.041 48.9223 307.017 48.6418 306.951 48.3989C307.126 46.7323 306.337 45.1743 304.879 44.1395ZM209.832 11.9777C209.869 12.0196 209.987 12.0657 210.024 12.1076C210.095 12.2709 210.128 12.3924 210.156 12.5934C210.001 12.5054 209.884 12.4593 209.772 12.3336C209.734 12.2918 209.823 12.1368 209.832 11.9777ZM201.81 14.107C201.848 14.1488 201.969 14.1154 201.965 14.1949C201.998 14.3164 201.993 14.396 201.984 14.5551C201.956 14.3541 201.881 14.2703 201.81 14.107ZM16.7274 209.925C16.391 210.226 16.0126 210.565 15.5921 210.942C15.4932 210.578 15.3852 210.373 15.4318 210.255C15.6181 209.786 15.9545 209.485 16.4273 209.59C16.5444 209.636 16.7274 209.925 16.7274 209.925ZM31.24 200.319C31.0013 200.306 30.7251 200.251 30.4909 200.159C30.4534 200.117 30.5045 199.92 30.5181 199.682C30.7943 199.736 31.033 199.749 31.2672 199.841C31.3422 199.925 31.249 200.159 31.24 200.319ZM77.5792 195.867C76.962 196.194 76.4096 196.085 75.8288 195.775C76.8903 195.352 76.9278 195.394 77.5792 195.867ZM70.5777 195.497C70.5402 195.455 70.6288 195.3 70.6708 195.263C70.9982 195.12 71.4096 194.903 71.6858 194.957C72.9497 195.184 74.2091 195.49 75.5105 195.758C74.1069 195.883 72.7452 195.971 71.3041 196.054C71.1449 196.046 70.9063 196.033 70.7517 195.945C70.6766 195.861 70.6107 195.618 70.5777 195.497ZM68.7238 195.12C68.7238 195.12 68.9205 195.17 68.7943 195.283L68.7238 195.12ZM71.8361 202.826C71.9952 202.834 72.1543 202.842 72.3089 202.93C72.3089 202.93 72.2998 203.09 72.2953 203.169C72.1362 203.161 71.9771 203.152 71.8225 203.064C71.7849 203.022 71.8315 202.905 71.8361 202.826ZM123.56 164.783C122.775 165.26 121.985 165.817 121.167 166.173C118.787 167.324 116.379 168.274 113.621 167.649C113.186 167.586 112.666 167.599 112.259 167.737C111.236 168.201 110.281 168.151 109.213 167.974C108.661 167.865 108.1 167.916 107.501 167.924C102.7 168.149 97.9021 167.615 93.2021 166.768C89.649 166.101 85.9141 165.824 82.7188 163.78C82.2971 163.478 81.6185 163.482 81.1081 163.335C79.4691 162.69 77.7368 162.279 75.7782 160.938C78.9912 159.871 81.6996 159.257 84.4739 158.885C86.1629 158.655 87.8473 158.505 89.5271 158.434C91.5253 158.38 93.4859 158.284 95.4283 158.507C97.4504 158.733 99.4679 159.04 101.535 158.471C102.344 158.274 103.356 158.727 104.26 158.974C104.691 159.116 105.075 159.376 105.581 159.602C106.614 158.979 107.624 158.753 108.808 158.975C112.352 159.801 115.957 160.271 119.487 161.336C120.391 161.583 121.299 161.751 122.198 162.078C123.364 162.618 123.997 163.41 123.56 164.783ZM77.4984 157.359C77.545 157.241 77.6336 157.086 77.6802 156.969C77.7973 157.015 77.9939 157.066 78.111 157.112C77.9849 157.225 77.8962 157.38 77.7326 157.451C77.6951 157.409 77.578 157.363 77.4984 157.359ZM90.7098 155.185C90.8314 155.151 90.995 155.08 91.1166 155.047L91.2667 155.214C91.1451 155.248 90.9814 155.319 90.8598 155.352C90.8598 155.352 90.7848 155.268 90.7098 155.185ZM109.35 148.071C107.357 148.724 105.69 147.877 103.893 147.902C103.533 147.923 103.097 147.86 102.77 148.002C101.615 148.659 100.309 148.47 99.2 148.332C97.9316 148.185 96.7006 148.08 95.5971 148.54C93.5957 149.352 91.5782 149.046 89.58 149.1C88.1809 149.145 86.7863 149.112 85.3781 149.316C83.2448 149.642 81.1444 150.09 79.0441 150.537C78.7213 150.6 78.5395 150.99 78.3248 151.257C78.1986 151.37 78.0634 151.643 77.9838 151.638C76.6824 151.37 75.6642 152.433 74.4753 152.291C73.0057 152.173 71.7055 152.583 70.3303 152.909C70.0075 152.972 69.6472 152.993 69.1698 152.968C69.2844 151.657 70.1208 150.983 70.8777 150.305C74.0687 147.521 77.4098 144.905 81.225 143.072C84.2595 141.636 87.3314 140.242 90.2954 138.644C91.7773 137.844 93.1991 137.401 94.9029 137.611C96.0135 138.427 97.3673 139.177 97.9598 140.685C98.0678 140.89 98.2929 141.142 98.527 141.234C101.577 143.031 104.935 144.326 108.297 145.541C108.728 145.684 109.209 145.63 109.649 145.613C111.844 145.609 112.429 145.84 114.913 147.767C112.995 147.825 111.019 147.481 109.35 148.071ZM222.879 27.3916C223.235 27.4503 223.591 27.509 223.947 27.5678C223.858 27.7227 223.882 28.0033 223.802 27.9991C223.48 28.0618 223.124 28.0031 222.764 28.0239C222.782 27.7056 222.842 27.3497 222.879 27.3916ZM226.54 30.3784C226.577 30.4202 226.531 30.5375 226.526 30.617C226.405 30.6505 226.199 30.7593 226.082 30.7132C225.848 30.621 225.66 30.4116 225.468 30.2817C225.557 30.1268 225.729 29.8966 225.729 29.8966C226.001 30.0306 226.231 30.2024 226.54 30.3784ZM211.116 27.9662L211.023 28.2007L210.873 28.0332L211.116 27.9662ZM152.832 56.4841C154.031 54.353 155.384 52.3098 157.196 50.6102C158.673 49.2119 160.299 47.9812 161.93 46.671C162.14 46.4826 162.421 46.4576 162.668 46.3111C165.46 44.9425 168.171 43.5697 170.883 42.197C170.919 41.5605 170.984 41.125 171.058 40.5304C172.406 40.6815 173.824 40.996 174.626 39.5221C174.715 39.3672 175.117 39.3087 175.398 39.2837C176.446 39.0997 177.461 38.7943 178.458 38.8071C180.334 38.7867 182.122 38.9212 183.674 40.3999C184.733 41.4136 186.213 42.0505 187.231 43.1018C188.436 44.3626 189.892 44.719 191.376 45.2763C192.079 45.5529 192.832 45.6327 193.53 45.9888C195.198 46.8352 196.819 47.7987 198.491 48.5655C202.144 50.2751 205.667 52.1772 209.548 53.3801C211.037 53.8579 212.568 54.2981 214.096 55.4961C213.329 55.655 212.618 55.5376 212.361 55.8432C211.035 57.409 209.793 56.7847 208.533 55.8003C208.148 55.5405 207.685 55.2766 207.245 55.2932C206.805 55.3099 206.347 55.6447 205.772 55.9335C204.385 55.0621 202.785 55.1371 201.063 55.2454C197.895 55.5168 194.713 55.3484 191.587 55.582C190.305 55.6738 189.15 56.3309 187.812 56.0207C187.498 55.9243 187.044 56.1796 186.792 56.4056C185.918 57.0377 184.945 57.3054 183.85 56.9283C183.185 56.6936 182.577 56.8609 181.964 57.1078C181.473 57.3212 180.907 57.4509 180.346 57.501C178.535 57.7643 176.654 57.8643 174.834 58.2867C173.623 58.5418 172.491 58.8011 171.251 58.8552C170.53 58.8969 169.608 58.9678 169.146 59.3823C168.221 60.2111 167.215 60.3574 166.088 60.5372C165.082 60.6835 164.142 61.0727 163.127 61.3781C161.948 61.7546 160.84 62.2945 159.633 62.4701C158.426 62.6456 157.228 62.662 156.219 63.5663C155.63 64.0937 154.755 64.0474 154.155 63.3772C152.495 61.6934 151.055 59.662 152.832 56.4841ZM219.269 61.356C219.311 61.3183 219.503 61.4482 219.62 61.4943C219.578 61.5319 219.494 61.6073 219.414 61.6031C219.293 61.6366 219.134 61.6281 218.974 61.6197C219.059 61.5444 219.185 61.4313 219.269 61.356ZM201.157 60.5972C201.195 60.6391 201.27 60.7229 201.265 60.8024C201.265 60.8024 201.143 60.8359 201.101 60.8735C201.064 60.8317 201.031 60.7102 200.993 60.6683C200.993 60.6683 201.115 60.6349 201.157 60.5972ZM194.588 61.0476C194.654 61.2905 194.762 61.4957 194.748 61.7344C194.739 61.8935 194.613 62.0066 194.524 62.1615C194.257 61.9478 193.985 61.8138 193.718 61.6001C193.765 61.4829 193.811 61.3657 193.853 61.328C194.139 61.2234 194.382 61.1564 194.588 61.0476ZM170.221 66.4219C169.558 66.8656 169.019 66.5179 168.442 66.1283C169.074 66.2415 169.627 66.3505 170.221 66.4219ZM158.953 63.9104L158.775 64.2202C158.738 64.1783 158.705 64.0569 158.667 64.015C158.751 63.9397 158.873 63.9062 158.953 63.9104ZM171.358 89.1858C172.926 88.9895 174.078 89.7687 175.227 90.6274C172.739 91.5731 171.76 91.242 171.358 89.1858ZM167.293 87.0155C166.278 87.3209 165.752 86.7345 165.185 86.1858C166.503 85.4575 167.652 86.3163 168.831 86.6181C168.991 86.6266 169.089 86.9909 169.23 87.3176C168.439 87.1959 167.779 86.8817 167.293 87.0155ZM138.218 79.7713L138.055 79.8425C138.092 79.8844 138.101 79.7252 138.218 79.7713ZM123.817 93.7329C125.047 91.0448 126.774 88.7421 129.299 87.1599C130.084 86.6828 130.724 85.9585 131.396 85.3557C131.691 85.0919 131.905 84.824 132.237 84.6021C135.047 82.9153 137.856 81.2285 140.703 79.5836C141.736 78.9599 142.844 78.42 143.835 77.834C144.635 75.0035 145.294 74.6393 147.748 75.6869C147.827 75.6911 147.903 75.7749 147.982 75.7791C148.572 75.93 148.758 75.4611 148.94 75.0717C149.932 75.1641 150.943 74.9382 151.949 74.7919C152.632 74.7084 153.549 74.717 154.083 75.1443C155.573 76.3005 157.564 77.0841 157.961 79.2199C159.954 79.2455 161.5 80.1254 163.088 80.9675C166.035 82.48 166.494 82.8236 167.447 84.3104C166.591 84.6242 165.735 84.9381 164.912 85.3734C164.459 85.6287 164.838 85.968 165.021 86.2569C164.415 87.1027 163.638 87.4207 162.589 86.9263C162.318 86.7922 162.13 86.5828 161.854 86.5283C161.737 86.4822 161.569 86.6329 161.367 86.6621C161.134 87.2483 162.137 87.86 161.142 88.5255C160.865 88.471 160.505 88.4919 160.196 88.3159C158.21 87.4527 156.118 87.0627 154.011 86.9113C153.295 86.8735 152.617 86.8775 152.3 87.539C151.764 88.5481 150.621 88.2881 149.953 88.8114C148.831 89.5899 148.03 88.949 147.093 88.5803C146.939 88.4923 146.695 88.5592 146.536 88.5508C146.204 88.7726 145.915 88.9568 145.583 89.1787C145.209 89.4382 144.835 89.6977 144.499 89.9991C143.49 90.9034 143.041 91.0791 141.804 90.3753C140.455 89.5457 139.369 89.6878 138.234 90.7051C138.024 90.8935 137.813 91.0818 137.44 91.3414C134.799 90.7628 132.166 91.4613 129.561 92.361C128.583 92.7082 127.644 93.0974 126.666 93.4447C125.689 93.792 124.716 94.0598 123.739 94.4071C123.845 93.9339 123.812 93.8124 123.817 93.7329ZM162.814 92.0854C162.41 91.4656 161.969 90.8038 161.341 89.9326C162.174 90.0166 162.768 90.0879 163.283 90.1551C164.166 89.3639 165.031 88.8909 166.053 89.8627L163.993 91.7089C163.88 91.5832 163.73 91.4157 163.618 91.29C163.365 91.5161 163.071 91.7798 162.814 92.0854ZM159.219 91.4563C158.994 91.205 158.769 90.9537 158.544 90.7023C159.227 90.6188 159.264 90.6607 159.219 91.4563ZM154.05 92.5394C153.919 92.732 153.208 92.6146 152.819 92.4344C152.154 92.1997 151.498 91.8059 150.683 91.4037C151.847 90.5874 152.657 91.0692 153.463 91.6306C153.73 91.8442 154.489 91.8444 154.05 92.5394ZM143.349 118.587C144.046 118.265 144.678 118.378 145.442 118.977C144.418 119.442 143.832 119.211 143.349 118.587ZM101.058 120.619C102.818 118.438 104.77 116.387 106.723 114.335C108.255 112.661 109.932 111.233 111.872 110.099C112.531 109.735 113.078 109.245 113.662 108.797C115.33 107.529 117.177 106.629 119.189 106.336C120.277 107.551 121.612 108.619 122.335 109.934C123.162 111.534 124.866 111.744 125.958 112.879C126.071 113.005 126.221 113.172 126.375 113.26C126.685 113.436 127.069 113.696 127.387 113.713C128.908 113.634 130.009 114.61 131.344 114.999C132.051 115.196 132.758 115.393 133.507 115.553C135.042 115.913 136.755 115.964 138.071 116.672C139.58 117.51 141.437 117.13 142.852 118.202C143.007 118.29 143.119 118.416 143.232 118.541C141.938 119.55 140.624 120.199 138.985 119.553C137.849 120.571 136.656 120.508 135.382 119.762C134.763 119.41 134.243 118.744 133.391 118.978C131.944 120.577 131.906 120.536 130.206 119.568C129.896 119.392 129.583 119.295 129.152 119.153C128.952 119.861 128.883 120.376 128.687 121.004C125.939 120.22 123.194 121.471 120.493 120.57C120.12 121.508 119.569 122.077 118.605 122.186C117.038 122.382 115.395 122.495 113.931 122.976C112.996 123.286 112.149 123.44 111.25 123.114C110.389 122.829 109.527 122.544 108.623 122.296C107.511 122.916 106.328 123.372 106.04 124.913C104.861 124.611 103.798 124.355 102.698 124.058C101.635 123.802 100.522 124.421 99.3934 123.923C99.55 122.574 100.325 121.578 101.058 120.619ZM144.862 127.047C143.964 127.398 143.197 127.557 142.513 126.962C143.247 126.682 143.986 126.322 144.862 127.047ZM141.512 124.914C141.517 124.835 141.479 124.793 141.446 124.671C141.488 124.634 141.572 124.558 141.61 124.6C141.69 124.604 141.765 124.688 141.802 124.73L141.512 124.914ZM136.748 124.503C136.791 125.143 136.384 125.281 136.028 125.223C135.555 125.118 134.966 124.967 135.296 124.067C135.806 124.213 136.317 124.36 136.748 124.503ZM133.469 125.327C133.192 125.272 132.958 125.18 132.762 125.13C132.766 125.05 132.813 124.933 132.855 124.895C133.018 124.824 133.22 124.795 133.337 124.841C133.416 124.845 133.403 125.084 133.469 125.327ZM129.551 124.76C129.659 124.965 129.501 125.635 129.379 125.669C128.893 125.803 128.378 125.736 127.615 125.815C127.853 125.149 127.884 124.592 128.174 124.408C128.595 124.031 129.222 124.224 129.551 124.76ZM125.421 125.818C125.374 125.936 125.126 126.082 125.009 126.036C124.616 125.936 124.227 125.755 123.876 125.617C123.927 125.42 123.978 125.223 124.029 125.027C124.423 125.127 124.858 125.19 125.247 125.37C125.326 125.375 125.43 125.659 125.421 125.818ZM121.462 125.968C121.415 126.085 121.318 126.399 121.28 126.358C121.041 126.345 120.807 126.253 120.573 126.161C120.779 126.052 120.984 125.943 121.27 125.838C121.307 125.88 121.462 125.968 121.462 125.968ZM120.489 126.236C120.387 126.629 120.247 126.981 120.187 127.337C119.438 127.178 118.731 126.981 117.748 126.729C118.728 125.624 119.528 125.587 120.489 126.236ZM115.898 126.272C115.838 126.628 115.74 126.942 115.676 127.378C115.324 127.239 115.048 127.185 114.898 127.017C114.636 126.724 114.583 126.243 114.99 126.105C115.196 125.996 115.543 126.214 115.898 126.272ZM109.738 127.941C109.612 128.054 109.444 128.205 109.364 128.201C109.051 128.105 108.779 127.97 108.507 127.836C108.83 127.774 109.153 127.711 109.476 127.648C109.555 127.652 109.663 127.858 109.738 127.941ZM98.9062 126.171L98.6721 126.079L98.7982 125.966L98.9062 126.171ZM102.82 129.61C102.825 129.531 102.829 129.451 102.871 129.414L103.114 129.347C102.993 129.38 102.867 129.493 102.82 129.61ZM145.048 151.795C145.02 151.594 144.954 151.351 144.926 151.15C145.085 151.159 145.244 151.167 145.403 151.176C145.268 151.448 145.179 151.603 145.048 151.795ZM142.486 147.749C142.205 147.774 141.845 147.795 141.564 147.82C141.485 147.816 141.372 147.69 141.372 147.69C141.419 147.573 141.512 147.339 141.591 147.343C141.872 147.318 142.228 147.377 142.466 147.389C142.499 147.511 142.495 147.59 142.486 147.749ZM157.639 140.212C157.522 140.166 157.325 140.115 157.208 140.069C157.208 140.069 157.217 139.91 157.259 139.872C157.418 139.881 157.577 139.889 157.699 139.856C157.694 139.935 157.648 140.053 157.639 140.212ZM169.107 139.222C168.668 139.917 168.018 140.123 167.194 139.879C167.58 138.703 167.58 138.703 168.891 138.812C168.928 138.854 168.994 139.097 169.107 139.222ZM167.599 136.27C165.901 136.659 165.901 136.659 164.916 137.844C164.533 138.262 164.305 138.769 163.922 139.188C163.707 139.455 163.412 139.719 163.085 139.861C162.964 139.895 162.575 139.715 162.504 139.551C162.174 138.337 161.729 137.755 160.77 137.784C159.932 137.779 159.123 137.976 158.238 138.089C155.146 138.444 152.181 139.364 149.021 138.798C148.585 138.735 148.099 138.869 147.655 138.965C146.288 139.132 144.88 139.337 143.477 139.462C142.634 139.538 141.713 139.608 140.973 139.29C139.493 138.653 138.047 138.816 136.54 138.656C133.919 138.438 131.293 138.299 128.681 137.921C126.186 137.59 123.701 137.099 121.177 136.567C119.323 136.189 117.465 135.892 115.751 135.162C113.569 134.249 111.382 133.415 109.139 132.857C108.783 132.799 108.352 132.656 108.169 132.367C107.62 131.5 106.736 131.613 105.903 131.529C105.585 131.512 105.275 131.336 104.456 131.014C106.037 130.579 107.089 130.315 108.142 130.052C108.708 129.922 109.278 129.713 109.793 129.78C110.228 129.843 110.604 130.262 111.105 130.567C111.033 129.726 111.102 129.211 111.861 129.211C112.141 129.186 112.417 129.24 112.656 129.253C113.694 128.55 114.887 128.613 116.057 128.395C117.507 128.153 118.948 128.07 120.191 127.258C120.907 127.295 121.619 127.413 122.302 127.329C126.04 126.849 129.732 126.486 133.513 126.646C135.394 126.546 137.28 126.366 139.152 126.425C140.228 126.442 141.36 126.183 142.358 126.874C141.867 127.088 141.334 127.339 140.843 127.552C141.448 128.143 142.173 128.022 142.889 128.06C145.515 128.198 148.14 128.337 150.455 129.737C151.457 130.348 152.604 130.529 153.412 129.654C154.503 130.11 155.393 130.596 156.372 130.928C158.53 131.56 160.74 131.997 162.899 132.63C164.893 133.334 166.678 134.226 167.599 136.27ZM148.501 118.501C148.468 118.379 148.435 118.258 148.444 118.099C148.603 118.107 148.72 118.153 148.88 118.162L148.946 118.405C148.782 118.476 148.623 118.467 148.501 118.501ZM153.356 119.436C153.197 119.428 153 119.377 152.841 119.369C152.883 119.331 152.929 119.214 152.971 119.176C153.131 119.185 153.327 119.235 153.486 119.243C153.44 119.361 153.435 119.44 153.356 119.436ZM153.303 116.161C154.435 115.902 154.435 115.902 155.119 116.497C154.487 116.384 154.131 116.325 153.303 116.161ZM159.327 116.879C161.025 116.49 162.463 117.165 163.91 117.68C161.215 118.056 160.625 117.905 159.327 116.879ZM166.784 120.466C166.62 120.537 166.419 120.566 166.26 120.558C166.143 120.512 166.072 120.348 165.96 120.223C166.123 120.151 166.329 120.043 166.446 120.089C166.643 120.139 166.671 120.34 166.784 120.466ZM166.802 118.033C166.559 118.1 166.241 118.083 166.002 118.07C165.923 118.066 165.857 117.823 165.786 117.66C166.189 117.601 166.553 117.501 167.077 117.409C166.938 117.761 166.924 117.999 166.802 118.033ZM169.503 118.255L169.554 118.059L169.709 118.147L169.503 118.255ZM181.81 117.949C181.684 118.062 181.558 118.175 181.436 118.208C181.394 118.246 181.286 118.041 181.174 117.915C181.337 117.844 181.496 117.853 181.66 117.781L181.81 117.949ZM185.087 118.561C185.045 118.599 184.886 118.591 184.848 118.549C184.773 118.465 184.782 118.306 184.712 118.142C184.871 118.151 185.03 118.159 185.189 118.168C185.143 118.285 185.133 118.444 185.087 118.561ZM194.216 118.007C196.424 117.765 198.347 117.627 200.356 118.092C197.844 118.757 195.888 118.774 194.216 118.007ZM202.208 117.791C202.049 117.783 201.932 117.737 201.778 117.649C201.941 117.578 202.063 117.544 202.227 117.473C202.306 117.477 202.386 117.481 202.503 117.528C202.377 117.641 202.288 117.796 202.208 117.791ZM227.722 110.483C227.198 110.575 226.811 111.073 226.278 111.324C225.787 111.537 225.249 111.868 224.73 111.881C222.971 111.947 221.24 112.215 219.537 112.683C217.792 113.189 216.09 113.658 214.392 114.047C213.461 114.277 212.248 113.854 211.966 115.315C211.026 115.704 210.114 116.294 209.112 115.683C208.34 115.921 208.464 117.244 207.35 117.186C206.806 116.239 206.055 115.401 206.207 114.132C206.623 113.835 207.039 113.538 207.455 113.241C206.543 113.153 205.672 113.027 204.792 113.06C204.511 113.085 204.213 113.428 203.923 113.613C204.214 114.107 204.472 114.48 204.688 114.89C204.725 114.932 204.599 115.045 204.511 115.2C202.289 115.681 200.046 115.123 197.763 115.282C197.673 114.758 197.653 114.398 197.592 114.076C196.379 113.652 195.355 114.117 194.369 114.623C194.767 114.644 195.291 114.552 195.245 115.348C194.805 115.365 194.361 115.461 193.963 115.44C193.804 115.431 193.663 115.105 193.513 114.937L194.172 114.573C192.627 114.372 191.12 114.212 189.534 114.048C188.742 113.927 187.896 114.081 187.22 113.327C187.327 112.854 187.472 112.423 187.574 112.029C185.233 111.786 182.944 111.345 180.757 112.626C180.097 112.99 179.134 113.099 178.604 112.592C177.844 111.914 177.077 112.072 176.202 112.026C174.653 111.904 173.015 111.937 171.582 111.183C171.118 110.919 170.477 110.965 169.92 110.936C169.204 110.898 168.441 110.977 167.688 110.897C165.904 110.683 164.201 110.473 162.468 110.063C160.699 109.61 158.822 109.63 156.968 109.253C153.855 108.569 150.682 108.242 147.564 107.638C145.354 107.202 143.196 106.569 141.037 105.936C138.607 105.169 136.266 104.247 133.919 103.405C132.786 102.986 131.653 102.567 130.668 101.637C130.808 101.285 130.943 101.013 131.083 100.661C130.208 100.615 129.328 100.648 128.214 100.589C128.597 100.171 128.775 99.8607 128.938 99.7895C131.3 98.9569 133.666 98.0446 136.061 97.3334C138.292 96.6933 140.631 96.2585 142.89 95.8194C144.626 95.4723 146.456 95.5691 147.923 94.33C148.217 94.0663 148.849 94.1795 149.252 94.121C150.655 93.9958 152.059 93.8705 153.43 93.6239C154.033 93.5361 154.655 93.1301 155.155 92.7575C155.781 92.2719 155.302 91.5683 155.339 90.9318C155.348 90.7727 155.516 90.6219 155.735 90.2744C156.531 90.3165 157.443 90.4047 158.361 90.4134C158.227 91.3639 158.302 91.4477 159.111 91.2511C160.217 92.1475 161.401 92.3698 162.711 91.8007C163.117 91.6626 163.52 91.6041 163.927 91.466C165.013 92.0023 166.105 92.459 167.354 92.2458C167.741 91.7476 167.404 91.3706 167.061 91.0732C166.569 90.6083 166.985 90.3111 167.167 89.9217C166.816 89.7834 166.464 89.6451 166.113 89.5068C166.155 89.4691 166.197 89.4315 166.277 89.4357C168.629 88.7621 168.747 88.8082 170.191 90.76C170.375 91.049 170.67 91.4637 170.988 91.4805C172.683 91.8495 174.406 92.4195 176.108 91.2726C178.285 92.2656 180.611 92.0694 182.914 92.2711C183.619 91.7897 184.364 92.0286 185.075 92.1461C187.285 92.5822 189.495 93.0183 191.667 93.4125C192.851 93.6348 194.171 93.5849 195.22 94.0793C197.435 95.1143 199.804 95.5588 202.266 95.7689C202.542 95.8234 202.823 95.7984 203.094 95.9325C206.756 96.8045 210.379 97.6346 214.036 98.5862C219.776 100.087 225.33 102.057 229.718 106.279C229.905 106.488 230.181 106.543 230.373 106.673C230.406 108.909 229.622 110.064 227.722 110.483ZM226.563 88.1166C226.399 88.1877 226.235 88.2589 226.076 88.2504C226.043 88.129 226.052 87.9699 226.019 87.8484C226.178 87.8568 226.337 87.8653 226.539 87.836C226.572 87.9575 226.605 88.0789 226.563 88.1166ZM237.141 94.3422C236.944 94.2919 236.752 94.1621 236.555 94.1118C236.597 94.0741 236.681 93.9987 236.766 93.9234C236.962 93.9737 237.196 94.0659 237.393 94.1162C237.309 94.1915 237.178 94.3841 237.141 94.3422ZM241.208 89.49C241.049 89.4816 240.889 89.4731 240.73 89.4647C240.73 89.4647 240.697 89.3433 240.702 89.2637C240.824 89.2302 241.025 89.201 241.146 89.1675C241.142 89.2471 241.175 89.3685 241.208 89.49ZM252.147 88.6723C252.059 88.8272 252.008 89.024 251.886 89.0574C251.643 89.1244 251.32 89.1871 251.081 89.1745C250.885 89.1242 250.702 88.8352 250.594 88.63C250.556 88.5881 250.813 88.2824 250.934 88.249C251.295 88.2281 251.651 88.2869 251.927 88.3414C252.077 88.5089 252.189 88.6346 252.147 88.6723ZM256.231 87.7312C255.815 88.0284 255.399 88.3256 254.908 88.539C254.786 88.5725 254.552 88.4803 254.44 88.3546C254.365 88.2709 254.425 87.9149 254.504 87.9191C254.958 87.6638 255.444 87.53 255.935 87.3165C256.085 87.4841 256.118 87.6055 256.231 87.7312ZM253.361 77.1652C253.981 78.1955 254.932 79.0039 255.758 79.9254C256.208 80.428 256.663 80.8511 257.071 81.3914C257.845 82.5097 257.604 83.9335 256.295 84.5026C255.229 85.0048 254.187 85.7876 252.853 85.3978C252.459 85.2972 251.931 85.4687 251.482 85.6445C250.425 85.9876 249.401 86.4521 248.339 86.8747C248.022 87.5363 247.705 88.1978 247.346 88.897C246.462 89.0099 245.615 89.1646 244.811 89.2816C244.523 90.8226 244.318 90.9314 242.968 90.1019C243.415 88.5693 245.353 88.8714 246.159 87.318C244.353 87.5018 242.786 87.6981 241.223 87.815C239.342 87.9149 237.452 88.174 235.627 87.9976C233.563 87.8087 231.601 87.226 229.468 87.5521C229.065 87.6106 228.559 87.3843 228.087 87.2795C227.258 87.1159 226.471 86.9147 225.601 86.7889C221.716 86.3439 217.771 86.2549 213.904 85.4917C211.615 85.0513 209.283 84.6487 206.994 84.2083C205.889 83.9903 204.827 83.7345 203.717 83.596C198.292 82.8701 193.063 81.516 187.758 80.0782C185.047 79.3363 182.345 78.4352 179.718 77.6179C176.778 76.7042 173.753 75.8658 171.227 73.9765C170.731 73.5911 170.019 73.4737 169.438 73.1636C167.766 72.3969 166.057 71.5882 164.305 70.8172C164.421 70.1849 164.528 69.7117 164.592 69.2762C164.703 68.7235 164.81 68.2503 164.875 67.8149C164.416 67.4713 164.149 67.2577 163.844 67.0022C165.149 66.5126 165.191 66.4749 166.001 66.9567C167.079 67.6521 168.175 68.0293 169.424 67.8161C170.27 67.6614 170.461 67.1129 170.184 66.38C170.579 65.0443 171.495 64.3745 172.885 64.488C173.203 64.5048 173.517 64.6012 173.873 64.6599C174.298 64.2036 174.747 64.0278 175.365 64.3798C175.674 64.5557 176.18 64.782 176.348 64.6313C177.554 63.7774 178.369 64.1796 179.274 65.1053C179.916 65.7378 180.436 65.7254 180.799 64.9466C181.293 63.9752 182.092 63.2594 182.921 63.4229C183.946 63.6368 184.633 62.7953 185.428 62.8373C185.962 63.2646 186.384 63.5663 186.539 63.6542C188.732 62.9723 190.528 62.2693 192.407 63.6056C192.983 63.9952 193.479 63.7022 193.866 63.204C194.048 62.8146 194.267 62.4671 194.449 62.0777C195.718 62.2246 196.949 62.3297 198.217 62.4766C199.486 62.6235 200.782 62.9714 202.059 62.2808C202.264 62.172 202.704 62.1554 202.817 62.281C203.684 63.1649 204.609 62.336 205.447 62.3404C207.005 62.3032 208.633 61.7509 209.955 63.0577C210.105 63.2253 210.62 63.2924 210.746 63.1794C211.624 62.4677 212.529 63.3935 213.502 63.1257C213.465 60.9691 211.425 61.0607 210.235 60.2396C211.221 59.7331 211.96 59.3732 213.014 59.7881C214.306 60.2156 214.524 61.3044 214.829 62.2383C217.941 62.2434 220.639 63.224 223.407 64.368C223.827 63.9912 224.172 63.5307 224.663 63.3173C225.117 63.0619 225.716 63.0537 226.202 62.9199C226.577 63.3387 226.999 63.6404 227.64 63.5945C227.265 63.1756 226.843 62.874 226.282 62.9241C225.715 62.3753 225.092 62.103 224.287 62.22C224.006 62.2451 223.66 62.0272 223.266 61.9266C224.681 60.2059 224.639 60.2436 226.143 61.1611C227.647 62.0786 229.244 62.7616 231.096 62.4606C231.7 62.3728 232.411 62.4903 232.629 63.5791C231.871 63.5789 231.192 63.5829 230.471 63.6246C229.634 63.6202 228.838 63.5781 228 63.5736C228.541 64.5997 229.398 64.9643 230.46 65.22C233.649 65.9872 236.786 66.9512 239.513 68.8113C240.92 67.9281 242.058 68.2676 243.117 69.2813C243.722 69.8719 244.373 70.3453 245.104 70.8229C246.641 71.8618 248.262 72.8254 249.841 73.8267C251.345 74.7442 252.484 75.7621 253.361 77.1652ZM216.433 56.4976C216.676 56.4307 216.924 56.2842 216.962 56.3261C217.112 56.4936 217.22 56.6988 217.365 56.9459C217.202 57.0171 216.996 57.1259 216.879 57.0798C216.729 56.9123 216.621 56.707 216.433 56.4976ZM236.878 63.9237C236.92 63.886 237.009 63.7311 237.047 63.773C237.164 63.819 237.276 63.9447 237.393 63.9908C237.351 64.0285 237.305 64.1457 237.225 64.1415C237.108 64.0954 236.996 63.9698 236.878 63.9237ZM240.901 57.7523L240.793 57.5471L241.027 57.6393L240.901 57.7523ZM242.974 57.7822C242.894 57.778 242.815 57.7738 242.735 57.7696C242.819 57.6942 242.908 57.5393 242.988 57.5435C243.147 57.5519 243.264 57.598 243.418 57.686C243.259 57.6776 243.096 57.7487 242.974 57.7822ZM243.624 57.5772C243.624 57.5772 243.624 57.5772 243.708 57.5018C243.75 57.4642 243.83 57.4684 243.909 57.4726L243.624 57.5772ZM260.3 61.1329C260.141 61.1244 259.897 61.1914 259.86 61.1495C259.639 60.8186 259.423 60.4082 259.203 60.0773C259.549 60.2951 259.938 60.4753 260.285 60.6932C260.364 60.6974 260.309 60.9737 260.3 61.1329ZM298.192 59.2674C298.626 58.6519 299.018 58.0741 299.415 57.4168C299.74 58.7108 299.572 58.8616 298.192 59.2674ZM301.559 55.4953C300.924 56.14 300.172 56.7386 299.419 57.3372C297.95 57.2196 296.574 57.5458 294.999 58.5797C296.259 58.8858 297.125 59.0912 298.071 59.3008C297.823 59.4473 297.617 59.5562 297.411 59.665C294.349 60.8995 291.059 61.2042 287.992 62.5183C287.337 62.8029 286.509 62.6393 285.75 62.6391C283.43 62.7557 281.098 62.3531 278.788 62.9889C278.545 63.0559 278.226 63.039 277.997 62.8672C275.757 61.5517 272.957 63.0794 270.773 61.4875C270.736 61.4456 270.614 61.4791 270.493 61.5126C269.332 61.5709 268.214 61.5915 267.091 61.6917C266.89 61.721 266.731 61.7125 266.529 61.7418C265.888 61.7877 265.205 61.8712 264.668 62.2019C263.588 62.9428 262.773 62.5406 261.654 61.8828C261.886 61.2966 262.119 60.7104 262.39 60.1661C261.879 60.0194 261.285 59.9481 260.779 59.7218C260.081 59.3657 259.553 59.5372 259.006 60.027C256.857 59.2349 254.41 59.4646 252.456 58.0445C252.188 57.8308 251.538 58.0358 251.094 58.132C250.57 58.224 250.041 58.3956 249.756 58.5002C248.875 57.855 248.317 57.1472 247.568 56.9878C246.032 56.6273 244.413 56.3421 242.896 56.3417C241.581 56.312 240.444 55.9724 239.488 55.2435C238.068 54.2507 236.453 53.8859 234.796 53.5588C234.164 53.4456 233.49 53.3701 232.862 53.1773C230.746 52.5067 228.596 51.7146 226.475 51.1236C219.953 49.342 213.626 46.9324 207.482 44.1334C201.454 41.3805 195.524 38.3136 189.943 34.7065C189.714 34.5348 189.526 34.3253 189.381 34.0782C189.306 33.9944 189.441 33.7223 189.539 33.4082C190.246 33.6053 190.915 33.7604 191.542 33.9532C191.888 33.4927 192.149 33.1075 192.322 32.8772C193.973 32.6055 195.424 32.363 196.874 32.1205C197.452 31.0738 198.506 31.4886 199.353 31.3339C201.205 31.0329 202.877 31.7997 204.623 31.9719C204.782 31.9803 204.95 31.8296 205.114 31.7585C205.179 31.323 205.244 30.8875 205.313 30.3725C206.431 30.3518 207.432 30.2851 208.392 30.256C208.716 30.8717 208.969 31.3241 209.223 31.7764C212.509 32.2295 212.509 32.2295 214.178 31.6396C213.377 30.9986 212.132 31.1323 211.312 30.1312C212.715 30.006 213.787 30.1026 214.832 30.6766C215.918 31.2129 216.874 31.9418 218.265 32.0553C218.263 31.3769 218.253 30.8576 218.214 30.1374C219.029 30.5396 219.699 30.6947 220.195 31.0801C221.573 32.1106 223.127 32.1529 224.765 32.1199C225.883 32.0993 227.044 32.041 228.115 32.1376C230.54 32.3057 232.913 32.6707 235.393 32.5625C236.951 32.5253 238.571 32.8105 240.149 33.1334C240.781 33.2466 241.273 33.7116 241.854 34.0216C242.648 33.3853 243.486 33.3897 244.203 34.106C243.838 34.2064 243.431 34.3445 243.067 34.4449C243.568 34.7507 243.937 34.5708 244.241 34.1479C246.584 33.6335 249.28 33.9357 251.701 34.8619C252.09 35.042 252.479 35.2222 252.83 35.3605C253.031 35.3312 253.19 35.3397 253.391 35.3104C254.663 34.6994 255.861 34.683 257.135 35.4287C257.754 35.7806 258.536 36.0614 259.214 36.0574C261.414 35.9743 263.404 36.7579 265.436 37.5039C266.335 37.8307 267.23 38.2372 268.11 38.2039C268.709 38.1957 269.224 38.2628 269.78 38.2923C271.526 38.4645 273.254 38.9549 274.94 39.483C276.508 39.965 277.913 40.5182 279.039 41.7747C279.789 42.6125 280.716 43.1404 281.999 43.0486C282.598 43.0404 283.216 43.3923 283.801 43.6228C284.738 43.9916 285.712 44.4022 286.649 44.771L286.686 44.8129C287.623 45.1816 288.601 45.5127 289.449 46.0364C292.541 47.796 295.591 49.5934 298.594 51.5079C299.597 52.1196 300.418 53.1206 301.248 53.9626C302.02 54.4025 301.984 55.039 301.559 55.4953Z" fill="#DEE2E6"/>
</svg>
